<?xml version="1.0" encoding="utf-8" standalone="no"?>
<!DOCTYPE svg PUBLIC "-//W3C//DTD SVG 1.1//EN"
  "http://www.w3.org/Graphics/SVG/1.1/DTD/svg11.dtd">
<!-- Created with matplotlib (https://matplotlib.org/) -->
<svg height="288pt" version="1.1" viewBox="0 0 432 288" width="432pt" xmlns="http://www.w3.org/2000/svg" xmlns:xlink="http://www.w3.org/1999/xlink">
 <defs>
  <style type="text/css">
*{stroke-linecap:butt;stroke-linejoin:round;}
  </style>
 </defs>
 <g id="figure_1">
  <g id="patch_1">
   <path d="M 0 288 
L 432 288 
L 432 0 
L 0 0 
z
" style="fill:#ffffff;"/>
  </g>
  <g id="axes_1">
   <g id="patch_2">
    <path d="M 54 252 
L 388.8 252 
L 388.8 34.56 
L 54 34.56 
z
" style="fill:#ffffff;"/>
   </g>
   <g id="matplotlib.axis_1">
    <g id="xtick_1">
     <g id="line2d_1">
      <path clip-path="url(#p4650b0ab7b)" d="M 76.077068 252 
L 76.077068 34.56 
" style="fill:none;stroke:#b0b0b0;stroke-linecap:square;stroke-width:0.8;"/>
     </g>
     <g id="line2d_2">
      <defs>
       <path d="M 0 0 
L 0 3.5 
" id="m2ffeab74bc" style="stroke:#000000;stroke-width:0.8;"/>
      </defs>
      <g>
       <use style="stroke:#000000;stroke-width:0.8;" x="76.077068" xlink:href="#m2ffeab74bc" y="252"/>
      </g>
     </g>
     <g id="text_1">
      <!-- −6 -->
      <defs>
       <path d="M 10.59375 35.5 
L 73.1875 35.5 
L 73.1875 27.203125 
L 10.59375 27.203125 
z
" id="DejaVuSans-8722"/>
       <path d="M 33.015625 40.375 
Q 26.375 40.375 22.484375 35.828125 
Q 18.609375 31.296875 18.609375 23.390625 
Q 18.609375 15.53125 22.484375 10.953125 
Q 26.375 6.390625 33.015625 6.390625 
Q 39.65625 6.390625 43.53125 10.953125 
Q 47.40625 15.53125 47.40625 23.390625 
Q 47.40625 31.296875 43.53125 35.828125 
Q 39.65625 40.375 33.015625 40.375 
z
M 52.59375 71.296875 
L 52.59375 62.3125 
Q 48.875 64.0625 45.09375 64.984375 
Q 41.3125 65.921875 37.59375 65.921875 
Q 27.828125 65.921875 22.671875 59.328125 
Q 17.53125 52.734375 16.796875 39.40625 
Q 19.671875 43.65625 24.015625 45.921875 
Q 28.375 48.1875 33.59375 48.1875 
Q 44.578125 48.1875 50.953125 41.515625 
Q 57.328125 34.859375 57.328125 23.390625 
Q 57.328125 12.15625 50.6875 5.359375 
Q 44.046875 -1.421875 33.015625 -1.421875 
Q 20.359375 -1.421875 13.671875 8.265625 
Q 6.984375 17.96875 6.984375 36.375 
Q 6.984375 53.65625 15.1875 63.9375 
Q 23.390625 74.21875 37.203125 74.21875 
Q 40.921875 74.21875 44.703125 73.484375 
Q 48.484375 72.75 52.59375 71.296875 
z
" id="DejaVuSans-54"/>
      </defs>
      <g transform="translate(68.705975 266.598437)scale(0.1 -0.1)">
       <use xlink:href="#DejaVuSans-8722"/>
       <use x="83.789062" xlink:href="#DejaVuSans-54"/>
      </g>
     </g>
    </g>
    <g id="xtick_2">
     <g id="line2d_3">
      <path clip-path="url(#p4650b0ab7b)" d="M 124.518046 252 
L 124.518046 34.56 
" style="fill:none;stroke:#b0b0b0;stroke-linecap:square;stroke-width:0.8;"/>
     </g>
     <g id="line2d_4">
      <g>
       <use style="stroke:#000000;stroke-width:0.8;" x="124.518046" xlink:href="#m2ffeab74bc" y="252"/>
      </g>
     </g>
     <g id="text_2">
      <!-- −4 -->
      <defs>
       <path d="M 37.796875 64.3125 
L 12.890625 25.390625 
L 37.796875 25.390625 
z
M 35.203125 72.90625 
L 47.609375 72.90625 
L 47.609375 25.390625 
L 58.015625 25.390625 
L 58.015625 17.1875 
L 47.609375 17.1875 
L 47.609375 0 
L 37.796875 0 
L 37.796875 17.1875 
L 4.890625 17.1875 
L 4.890625 26.703125 
z
" id="DejaVuSans-52"/>
      </defs>
      <g transform="translate(117.146952 266.598437)scale(0.1 -0.1)">
       <use xlink:href="#DejaVuSans-8722"/>
       <use x="83.789062" xlink:href="#DejaVuSans-52"/>
      </g>
     </g>
    </g>
    <g id="xtick_3">
     <g id="line2d_5">
      <path clip-path="url(#p4650b0ab7b)" d="M 172.959023 252 
L 172.959023 34.56 
" style="fill:none;stroke:#b0b0b0;stroke-linecap:square;stroke-width:0.8;"/>
     </g>
     <g id="line2d_6">
      <g>
       <use style="stroke:#000000;stroke-width:0.8;" x="172.959023" xlink:href="#m2ffeab74bc" y="252"/>
      </g>
     </g>
     <g id="text_3">
      <!-- −2 -->
      <defs>
       <path d="M 19.1875 8.296875 
L 53.609375 8.296875 
L 53.609375 0 
L 7.328125 0 
L 7.328125 8.296875 
Q 12.9375 14.109375 22.625 23.890625 
Q 32.328125 33.6875 34.8125 36.53125 
Q 39.546875 41.84375 41.421875 45.53125 
Q 43.3125 49.21875 43.3125 52.78125 
Q 43.3125 58.59375 39.234375 62.25 
Q 35.15625 65.921875 28.609375 65.921875 
Q 23.96875 65.921875 18.8125 64.3125 
Q 13.671875 62.703125 7.8125 59.421875 
L 7.8125 69.390625 
Q 13.765625 71.78125 18.9375 73 
Q 24.125 74.21875 28.421875 74.21875 
Q 39.75 74.21875 46.484375 68.546875 
Q 53.21875 62.890625 53.21875 53.421875 
Q 53.21875 48.921875 51.53125 44.890625 
Q 49.859375 40.875 45.40625 35.40625 
Q 44.1875 33.984375 37.640625 27.21875 
Q 31.109375 20.453125 19.1875 8.296875 
z
" id="DejaVuSans-50"/>
      </defs>
      <g transform="translate(165.587929 266.598437)scale(0.1 -0.1)">
       <use xlink:href="#DejaVuSans-8722"/>
       <use x="83.789062" xlink:href="#DejaVuSans-50"/>
      </g>
     </g>
    </g>
    <g id="xtick_4">
     <g id="line2d_7">
      <path clip-path="url(#p4650b0ab7b)" d="M 221.4 252 
L 221.4 34.56 
" style="fill:none;stroke:#b0b0b0;stroke-linecap:square;stroke-width:0.8;"/>
     </g>
     <g id="line2d_8">
      <g>
       <use style="stroke:#000000;stroke-width:0.8;" x="221.4" xlink:href="#m2ffeab74bc" y="252"/>
      </g>
     </g>
     <g id="text_4">
      <!-- 0 -->
      <defs>
       <path d="M 31.78125 66.40625 
Q 24.171875 66.40625 20.328125 58.90625 
Q 16.5 51.421875 16.5 36.375 
Q 16.5 21.390625 20.328125 13.890625 
Q 24.171875 6.390625 31.78125 6.390625 
Q 39.453125 6.390625 43.28125 13.890625 
Q 47.125 21.390625 47.125 36.375 
Q 47.125 51.421875 43.28125 58.90625 
Q 39.453125 66.40625 31.78125 66.40625 
z
M 31.78125 74.21875 
Q 44.046875 74.21875 50.515625 64.515625 
Q 56.984375 54.828125 56.984375 36.375 
Q 56.984375 17.96875 50.515625 8.265625 
Q 44.046875 -1.421875 31.78125 -1.421875 
Q 19.53125 -1.421875 13.0625 8.265625 
Q 6.59375 17.96875 6.59375 36.375 
Q 6.59375 54.828125 13.0625 64.515625 
Q 19.53125 74.21875 31.78125 74.21875 
z
" id="DejaVuSans-48"/>
      </defs>
      <g transform="translate(218.21875 266.598437)scale(0.1 -0.1)">
       <use xlink:href="#DejaVuSans-48"/>
      </g>
     </g>
    </g>
    <g id="xtick_5">
     <g id="line2d_9">
      <path clip-path="url(#p4650b0ab7b)" d="M 269.840977 252 
L 269.840977 34.56 
" style="fill:none;stroke:#b0b0b0;stroke-linecap:square;stroke-width:0.8;"/>
     </g>
     <g id="line2d_10">
      <g>
       <use style="stroke:#000000;stroke-width:0.8;" x="269.840977" xlink:href="#m2ffeab74bc" y="252"/>
      </g>
     </g>
     <g id="text_5">
      <!-- 2 -->
      <g transform="translate(266.659727 266.598437)scale(0.1 -0.1)">
       <use xlink:href="#DejaVuSans-50"/>
      </g>
     </g>
    </g>
    <g id="xtick_6">
     <g id="line2d_11">
      <path clip-path="url(#p4650b0ab7b)" d="M 318.281954 252 
L 318.281954 34.56 
" style="fill:none;stroke:#b0b0b0;stroke-linecap:square;stroke-width:0.8;"/>
     </g>
     <g id="line2d_12">
      <g>
       <use style="stroke:#000000;stroke-width:0.8;" x="318.281954" xlink:href="#m2ffeab74bc" y="252"/>
      </g>
     </g>
     <g id="text_6">
      <!-- 4 -->
      <g transform="translate(315.100704 266.598437)scale(0.1 -0.1)">
       <use xlink:href="#DejaVuSans-52"/>
      </g>
     </g>
    </g>
    <g id="xtick_7">
     <g id="line2d_13">
      <path clip-path="url(#p4650b0ab7b)" d="M 366.722932 252 
L 366.722932 34.56 
" style="fill:none;stroke:#b0b0b0;stroke-linecap:square;stroke-width:0.8;"/>
     </g>
     <g id="line2d_14">
      <g>
       <use style="stroke:#000000;stroke-width:0.8;" x="366.722932" xlink:href="#m2ffeab74bc" y="252"/>
      </g>
     </g>
     <g id="text_7">
      <!-- 6 -->
      <g transform="translate(363.541682 266.598437)scale(0.1 -0.1)">
       <use xlink:href="#DejaVuSans-54"/>
      </g>
     </g>
    </g>
    <g id="text_8">
     <!-- $x$ -->
     <defs>
      <path d="M 60.015625 54.6875 
L 34.90625 27.875 
L 50.296875 0 
L 39.984375 0 
L 28.421875 21.6875 
L 8.296875 0 
L -2.59375 0 
L 24.3125 28.8125 
L 10.015625 54.6875 
L 20.3125 54.6875 
L 30.8125 34.90625 
L 49.125 54.6875 
z
" id="DejaVuSans-Oblique-120"/>
     </defs>
     <g transform="translate(218.4 280.276563)scale(0.1 -0.1)">
      <use transform="translate(0 0.3125)" xlink:href="#DejaVuSans-Oblique-120"/>
     </g>
    </g>
   </g>
   <g id="matplotlib.axis_2">
    <g id="ytick_1">
     <g id="line2d_15">
      <path clip-path="url(#p4650b0ab7b)" d="M 54 242.116364 
L 388.8 242.116364 
" style="fill:none;stroke:#b0b0b0;stroke-linecap:square;stroke-width:0.8;"/>
     </g>
     <g id="line2d_16">
      <defs>
       <path d="M 0 0 
L -3.5 0 
" id="m273679d8cb" style="stroke:#000000;stroke-width:0.8;"/>
      </defs>
      <g>
       <use style="stroke:#000000;stroke-width:0.8;" x="54" xlink:href="#m273679d8cb" y="242.116364"/>
      </g>
     </g>
     <g id="text_9">
      <!-- −2.0 -->
      <defs>
       <path d="M 10.6875 12.40625 
L 21 12.40625 
L 21 0 
L 10.6875 0 
z
" id="DejaVuSans-46"/>
      </defs>
      <g transform="translate(22.717187 245.915582)scale(0.1 -0.1)">
       <use xlink:href="#DejaVuSans-8722"/>
       <use x="83.789062" xlink:href="#DejaVuSans-50"/>
       <use x="147.412109" xlink:href="#DejaVuSans-46"/>
       <use x="179.199219" xlink:href="#DejaVuSans-48"/>
      </g>
     </g>
    </g>
    <g id="ytick_2">
     <g id="line2d_17">
      <path clip-path="url(#p4650b0ab7b)" d="M 54 209.170909 
L 388.8 209.170909 
" style="fill:none;stroke:#b0b0b0;stroke-linecap:square;stroke-width:0.8;"/>
     </g>
     <g id="line2d_18">
      <g>
       <use style="stroke:#000000;stroke-width:0.8;" x="54" xlink:href="#m273679d8cb" y="209.170909"/>
      </g>
     </g>
     <g id="text_10">
      <!-- −1.5 -->
      <defs>
       <path d="M 12.40625 8.296875 
L 28.515625 8.296875 
L 28.515625 63.921875 
L 10.984375 60.40625 
L 10.984375 69.390625 
L 28.421875 72.90625 
L 38.28125 72.90625 
L 38.28125 8.296875 
L 54.390625 8.296875 
L 54.390625 0 
L 12.40625 0 
z
" id="DejaVuSans-49"/>
       <path d="M 10.796875 72.90625 
L 49.515625 72.90625 
L 49.515625 64.59375 
L 19.828125 64.59375 
L 19.828125 46.734375 
Q 21.96875 47.46875 24.109375 47.828125 
Q 26.265625 48.1875 28.421875 48.1875 
Q 40.625 48.1875 47.75 41.5 
Q 54.890625 34.8125 54.890625 23.390625 
Q 54.890625 11.625 47.5625 5.09375 
Q 40.234375 -1.421875 26.90625 -1.421875 
Q 22.3125 -1.421875 17.546875 -0.640625 
Q 12.796875 0.140625 7.71875 1.703125 
L 7.71875 11.625 
Q 12.109375 9.234375 16.796875 8.0625 
Q 21.484375 6.890625 26.703125 6.890625 
Q 35.15625 6.890625 40.078125 11.328125 
Q 45.015625 15.765625 45.015625 23.390625 
Q 45.015625 31 40.078125 35.4375 
Q 35.15625 39.890625 26.703125 39.890625 
Q 22.75 39.890625 18.8125 39.015625 
Q 14.890625 38.140625 10.796875 36.28125 
z
" id="DejaVuSans-53"/>
      </defs>
      <g transform="translate(22.717187 212.970128)scale(0.1 -0.1)">
       <use xlink:href="#DejaVuSans-8722"/>
       <use x="83.789062" xlink:href="#DejaVuSans-49"/>
       <use x="147.412109" xlink:href="#DejaVuSans-46"/>
       <use x="179.199219" xlink:href="#DejaVuSans-53"/>
      </g>
     </g>
    </g>
    <g id="ytick_3">
     <g id="line2d_19">
      <path clip-path="url(#p4650b0ab7b)" d="M 54 176.225455 
L 388.8 176.225455 
" style="fill:none;stroke:#b0b0b0;stroke-linecap:square;stroke-width:0.8;"/>
     </g>
     <g id="line2d_20">
      <g>
       <use style="stroke:#000000;stroke-width:0.8;" x="54" xlink:href="#m273679d8cb" y="176.225455"/>
      </g>
     </g>
     <g id="text_11">
      <!-- −1.0 -->
      <g transform="translate(22.717187 180.024673)scale(0.1 -0.1)">
       <use xlink:href="#DejaVuSans-8722"/>
       <use x="83.789062" xlink:href="#DejaVuSans-49"/>
       <use x="147.412109" xlink:href="#DejaVuSans-46"/>
       <use x="179.199219" xlink:href="#DejaVuSans-48"/>
      </g>
     </g>
    </g>
    <g id="ytick_4">
     <g id="line2d_21">
      <path clip-path="url(#p4650b0ab7b)" d="M 54 143.28 
L 388.8 143.28 
" style="fill:none;stroke:#b0b0b0;stroke-linecap:square;stroke-width:0.8;"/>
     </g>
     <g id="line2d_22">
      <g>
       <use style="stroke:#000000;stroke-width:0.8;" x="54" xlink:href="#m273679d8cb" y="143.28"/>
      </g>
     </g>
     <g id="text_12">
      <!-- −0.5 -->
      <g transform="translate(22.717187 147.079219)scale(0.1 -0.1)">
       <use xlink:href="#DejaVuSans-8722"/>
       <use x="83.789062" xlink:href="#DejaVuSans-48"/>
       <use x="147.412109" xlink:href="#DejaVuSans-46"/>
       <use x="179.199219" xlink:href="#DejaVuSans-53"/>
      </g>
     </g>
    </g>
    <g id="ytick_5">
     <g id="line2d_23">
      <path clip-path="url(#p4650b0ab7b)" d="M 54 110.334545 
L 388.8 110.334545 
" style="fill:none;stroke:#b0b0b0;stroke-linecap:square;stroke-width:0.8;"/>
     </g>
     <g id="line2d_24">
      <g>
       <use style="stroke:#000000;stroke-width:0.8;" x="54" xlink:href="#m273679d8cb" y="110.334545"/>
      </g>
     </g>
     <g id="text_13">
      <!-- 0.0 -->
      <g transform="translate(31.096875 114.133764)scale(0.1 -0.1)">
       <use xlink:href="#DejaVuSans-48"/>
       <use x="63.623047" xlink:href="#DejaVuSans-46"/>
       <use x="95.410156" xlink:href="#DejaVuSans-48"/>
      </g>
     </g>
    </g>
    <g id="ytick_6">
     <g id="line2d_25">
      <path clip-path="url(#p4650b0ab7b)" d="M 54 77.389091 
L 388.8 77.389091 
" style="fill:none;stroke:#b0b0b0;stroke-linecap:square;stroke-width:0.8;"/>
     </g>
     <g id="line2d_26">
      <g>
       <use style="stroke:#000000;stroke-width:0.8;" x="54" xlink:href="#m273679d8cb" y="77.389091"/>
      </g>
     </g>
     <g id="text_14">
      <!-- 0.5 -->
      <g transform="translate(31.096875 81.18831)scale(0.1 -0.1)">
       <use xlink:href="#DejaVuSans-48"/>
       <use x="63.623047" xlink:href="#DejaVuSans-46"/>
       <use x="95.410156" xlink:href="#DejaVuSans-53"/>
      </g>
     </g>
    </g>
    <g id="ytick_7">
     <g id="line2d_27">
      <path clip-path="url(#p4650b0ab7b)" d="M 54 44.443636 
L 388.8 44.443636 
" style="fill:none;stroke:#b0b0b0;stroke-linecap:square;stroke-width:0.8;"/>
     </g>
     <g id="line2d_28">
      <g>
       <use style="stroke:#000000;stroke-width:0.8;" x="54" xlink:href="#m273679d8cb" y="44.443636"/>
      </g>
     </g>
     <g id="text_15">
      <!-- 1.0 -->
      <g transform="translate(31.096875 48.242855)scale(0.1 -0.1)">
       <use xlink:href="#DejaVuSans-49"/>
       <use x="63.623047" xlink:href="#DejaVuSans-46"/>
       <use x="95.410156" xlink:href="#DejaVuSans-48"/>
      </g>
     </g>
    </g>
    <g id="text_16">
     <!-- $f(x) = sin(x) + 0.2 \sin(5 x)$ -->
     <defs>
      <path d="M 47.796875 75.984375 
L 46.390625 68.5 
L 37.796875 68.5 
Q 32.90625 68.5 30.6875 66.578125 
Q 28.46875 64.65625 27.390625 59.515625 
L 26.421875 54.6875 
L 41.21875 54.6875 
L 39.890625 47.703125 
L 25.09375 47.703125 
L 15.828125 0 
L 6.78125 0 
L 16.109375 47.703125 
L 7.515625 47.703125 
L 8.796875 54.6875 
L 17.390625 54.6875 
L 18.109375 58.5 
Q 19.96875 68.171875 24.625 72.078125 
Q 29.296875 75.984375 39.3125 75.984375 
z
" id="DejaVuSans-Oblique-102"/>
      <path d="M 31 75.875 
Q 24.46875 64.65625 21.28125 53.65625 
Q 18.109375 42.671875 18.109375 31.390625 
Q 18.109375 20.125 21.3125 9.0625 
Q 24.515625 -2 31 -13.1875 
L 23.1875 -13.1875 
Q 15.875 -1.703125 12.234375 9.375 
Q 8.59375 20.453125 8.59375 31.390625 
Q 8.59375 42.28125 12.203125 53.3125 
Q 15.828125 64.359375 23.1875 75.875 
z
" id="DejaVuSans-40"/>
      <path d="M 8.015625 75.875 
L 15.828125 75.875 
Q 23.140625 64.359375 26.78125 53.3125 
Q 30.421875 42.28125 30.421875 31.390625 
Q 30.421875 20.453125 26.78125 9.375 
Q 23.140625 -1.703125 15.828125 -13.1875 
L 8.015625 -13.1875 
Q 14.5 -2 17.703125 9.0625 
Q 20.90625 20.125 20.90625 31.390625 
Q 20.90625 42.671875 17.703125 53.65625 
Q 14.5 64.65625 8.015625 75.875 
z
" id="DejaVuSans-41"/>
      <path d="M 10.59375 45.40625 
L 73.1875 45.40625 
L 73.1875 37.203125 
L 10.59375 37.203125 
z
M 10.59375 25.484375 
L 73.1875 25.484375 
L 73.1875 17.1875 
L 10.59375 17.1875 
z
" id="DejaVuSans-61"/>
      <path d="M 50 53.078125 
L 48.296875 44.578125 
Q 44.734375 46.53125 40.765625 47.5 
Q 36.8125 48.484375 32.625 48.484375 
Q 25.53125 48.484375 21.453125 46.0625 
Q 17.390625 43.65625 17.390625 39.5 
Q 17.390625 34.671875 26.859375 32.078125 
Q 27.59375 31.890625 27.9375 31.78125 
L 30.8125 30.90625 
Q 39.796875 28.421875 42.796875 25.6875 
Q 45.796875 22.953125 45.796875 18.21875 
Q 45.796875 9.515625 38.890625 4.046875 
Q 31.984375 -1.421875 20.796875 -1.421875 
Q 16.453125 -1.421875 11.671875 -0.578125 
Q 6.890625 0.25 1.125 2 
L 2.875 11.28125 
Q 7.8125 8.734375 12.59375 7.421875 
Q 17.390625 6.109375 21.78125 6.109375 
Q 28.375 6.109375 32.5 8.9375 
Q 36.625 11.765625 36.625 16.109375 
Q 36.625 20.796875 25.78125 23.6875 
L 24.859375 23.921875 
L 21.78125 24.703125 
Q 14.9375 26.515625 11.765625 29.46875 
Q 8.59375 32.421875 8.59375 37.015625 
Q 8.59375 45.75 15.15625 50.875 
Q 21.734375 56 33.015625 56 
Q 37.453125 56 41.671875 55.265625 
Q 45.90625 54.546875 50 53.078125 
z
" id="DejaVuSans-Oblique-115"/>
      <path d="M 18.3125 75.984375 
L 27.296875 75.984375 
L 25.09375 64.59375 
L 16.109375 64.59375 
z
M 14.203125 54.6875 
L 23.1875 54.6875 
L 12.5 0 
L 3.515625 0 
z
" id="DejaVuSans-Oblique-105"/>
      <path d="M 55.71875 33.015625 
L 49.3125 0 
L 40.28125 0 
L 46.6875 32.671875 
Q 47.125 34.96875 47.359375 36.71875 
Q 47.609375 38.484375 47.609375 39.5 
Q 47.609375 43.609375 45.015625 45.890625 
Q 42.4375 48.1875 37.796875 48.1875 
Q 30.5625 48.1875 25.34375 43.375 
Q 20.125 38.578125 18.5 30.328125 
L 12.5 0 
L 3.515625 0 
L 14.109375 54.6875 
L 23.09375 54.6875 
L 21.296875 46.09375 
Q 25.046875 50.828125 30.3125 53.40625 
Q 35.59375 56 41.40625 56 
Q 48.640625 56 52.609375 52.09375 
Q 56.59375 48.1875 56.59375 41.109375 
Q 56.59375 39.359375 56.375 37.359375 
Q 56.15625 35.359375 55.71875 33.015625 
z
" id="DejaVuSans-Oblique-110"/>
      <path d="M 46 62.703125 
L 46 35.5 
L 73.1875 35.5 
L 73.1875 27.203125 
L 46 27.203125 
L 46 0 
L 37.796875 0 
L 37.796875 27.203125 
L 10.59375 27.203125 
L 10.59375 35.5 
L 37.796875 35.5 
L 37.796875 62.703125 
z
" id="DejaVuSans-43"/>
      <path d="M 44.28125 53.078125 
L 44.28125 44.578125 
Q 40.484375 46.53125 36.375 47.5 
Q 32.28125 48.484375 27.875 48.484375 
Q 21.1875 48.484375 17.84375 46.4375 
Q 14.5 44.390625 14.5 40.28125 
Q 14.5 37.15625 16.890625 35.375 
Q 19.28125 33.59375 26.515625 31.984375 
L 29.59375 31.296875 
Q 39.15625 29.25 43.1875 25.515625 
Q 47.21875 21.78125 47.21875 15.09375 
Q 47.21875 7.46875 41.1875 3.015625 
Q 35.15625 -1.421875 24.609375 -1.421875 
Q 20.21875 -1.421875 15.453125 -0.5625 
Q 10.6875 0.296875 5.421875 2 
L 5.421875 11.28125 
Q 10.40625 8.6875 15.234375 7.390625 
Q 20.0625 6.109375 24.8125 6.109375 
Q 31.15625 6.109375 34.5625 8.28125 
Q 37.984375 10.453125 37.984375 14.40625 
Q 37.984375 18.0625 35.515625 20.015625 
Q 33.0625 21.96875 24.703125 23.78125 
L 21.578125 24.515625 
Q 13.234375 26.265625 9.515625 29.90625 
Q 5.8125 33.546875 5.8125 39.890625 
Q 5.8125 47.609375 11.28125 51.796875 
Q 16.75 56 26.8125 56 
Q 31.78125 56 36.171875 55.265625 
Q 40.578125 54.546875 44.28125 53.078125 
z
" id="DejaVuSans-115"/>
      <path d="M 9.421875 54.6875 
L 18.40625 54.6875 
L 18.40625 0 
L 9.421875 0 
z
M 9.421875 75.984375 
L 18.40625 75.984375 
L 18.40625 64.59375 
L 9.421875 64.59375 
z
" id="DejaVuSans-105"/>
      <path d="M 54.890625 33.015625 
L 54.890625 0 
L 45.90625 0 
L 45.90625 32.71875 
Q 45.90625 40.484375 42.875 44.328125 
Q 39.84375 48.1875 33.796875 48.1875 
Q 26.515625 48.1875 22.3125 43.546875 
Q 18.109375 38.921875 18.109375 30.90625 
L 18.109375 0 
L 9.078125 0 
L 9.078125 54.6875 
L 18.109375 54.6875 
L 18.109375 46.1875 
Q 21.34375 51.125 25.703125 53.5625 
Q 30.078125 56 35.796875 56 
Q 45.21875 56 50.046875 50.171875 
Q 54.890625 44.34375 54.890625 33.015625 
z
" id="DejaVuSans-110"/>
     </defs>
     <g transform="translate(16.6375 203.38)rotate(-90)scale(0.1 -0.1)">
      <use transform="translate(0 0.015625)" xlink:href="#DejaVuSans-Oblique-102"/>
      <use transform="translate(35.205078 0.015625)" xlink:href="#DejaVuSans-40"/>
      <use transform="translate(74.21875 0.015625)" xlink:href="#DejaVuSans-Oblique-120"/>
      <use transform="translate(133.398438 0.015625)" xlink:href="#DejaVuSans-41"/>
      <use transform="translate(191.894531 0.015625)" xlink:href="#DejaVuSans-61"/>
      <use transform="translate(295.166016 0.015625)" xlink:href="#DejaVuSans-Oblique-115"/>
      <use transform="translate(347.265625 0.015625)" xlink:href="#DejaVuSans-Oblique-105"/>
      <use transform="translate(375.048828 0.015625)" xlink:href="#DejaVuSans-Oblique-110"/>
      <use transform="translate(438.427734 0.015625)" xlink:href="#DejaVuSans-40"/>
      <use transform="translate(477.441406 0.015625)" xlink:href="#DejaVuSans-Oblique-120"/>
      <use transform="translate(536.621094 0.015625)" xlink:href="#DejaVuSans-41"/>
      <use transform="translate(595.117188 0.015625)" xlink:href="#DejaVuSans-43"/>
      <use transform="translate(698.388672 0.015625)" xlink:href="#DejaVuSans-48"/>
      <use transform="translate(762.011719 0.015625)" xlink:href="#DejaVuSans-46"/>
      <use transform="translate(793.720703 0.015625)" xlink:href="#DejaVuSans-50"/>
      <use transform="translate(857.34375 0.015625)" xlink:href="#DejaVuSans-115"/>
      <use transform="translate(909.443359 0.015625)" xlink:href="#DejaVuSans-105"/>
      <use transform="translate(937.226562 0.015625)" xlink:href="#DejaVuSans-110"/>
      <use transform="translate(1000.605469 0.015625)" xlink:href="#DejaVuSans-40"/>
      <use transform="translate(1039.619141 0.015625)" xlink:href="#DejaVuSans-53"/>
      <use transform="translate(1103.242188 0.015625)" xlink:href="#DejaVuSans-Oblique-120"/>
      <use transform="translate(1162.421875 0.015625)" xlink:href="#DejaVuSans-41"/>
     </g>
    </g>
   </g>
   <g id="line2d_29">
    <path clip-path="url(#p4650b0ab7b)" d="M 69.218182 110.334545 
L 73.022727 110.334545 
L 76.827273 110.334545 
L 80.631818 110.334545 
L 84.436364 110.334545 
L 88.240909 110.334545 
L 92.045455 110.334545 
L 95.85 110.334545 
L 99.654545 110.334545 
L 103.459091 110.334545 
L 107.263636 110.334545 
L 111.068182 110.334545 
L 114.872727 110.334545 
L 118.677273 110.334544 
L 122.481818 110.334542 
L 126.286364 110.334532 
L 130.090909 110.334501 
L 133.895455 110.334404 
L 137.7 110.334117 
L 141.504545 110.333306 
L 145.309091 110.331137 
L 149.113636 110.325624 
L 152.918182 110.312317 
L 156.722727 110.281827 
L 160.527273 110.215535 
L 164.331818 110.07882 
L 168.136364 109.81151 
L 171.940909 109.316288 
L 175.745455 108.447631 
L 179.55 107.0063 
L 183.354545 104.746669 
L 187.159091 101.404642 
L 190.963636 96.750937 
L 194.768182 90.666919 
L 198.572727 83.229061 
L 202.377273 74.777077 
L 206.181818 65.935574 
L 209.986364 57.564992 
L 213.790909 50.636192 
L 217.595455 46.049536 
L 221.4 44.443636 
L 225.204545 46.049536 
L 229.009091 50.636192 
L 232.813636 57.564992 
L 236.618182 65.935574 
L 240.422727 74.777077 
L 244.227273 83.229061 
L 248.031818 90.666919 
L 251.836364 96.750937 
L 255.640909 101.404642 
L 259.445455 104.746669 
L 263.25 107.0063 
L 267.054545 108.447631 
L 270.859091 109.316288 
L 274.663636 109.81151 
L 278.468182 110.07882 
L 282.272727 110.215535 
L 286.077273 110.281827 
L 289.881818 110.312317 
L 293.686364 110.325624 
L 297.490909 110.331137 
L 301.295455 110.333306 
L 305.1 110.334117 
L 308.904545 110.334404 
L 312.709091 110.334501 
L 316.513636 110.334532 
L 320.318182 110.334542 
L 324.122727 110.334544 
L 327.927273 110.334545 
L 331.731818 110.334545 
L 335.536364 110.334545 
L 339.340909 110.334545 
L 343.145455 110.334545 
L 346.95 110.334545 
L 350.754545 110.334545 
L 354.559091 110.334545 
L 358.363636 110.334545 
L 362.168182 110.334545 
L 365.972727 110.334545 
L 369.777273 110.334545 
L 373.581818 110.334545 
" style="fill:none;stroke:#1f77b4;stroke-linecap:square;stroke-width:1.5;"/>
   </g>
   <g id="line2d_30">
    <path clip-path="url(#p4650b0ab7b)" d="M 69.218182 110.334545 
L 73.022727 110.334545 
L 76.827273 110.334545 
L 80.631818 110.334545 
L 84.436364 110.334545 
L 88.240909 110.334545 
L 92.045455 110.334545 
L 95.85 110.334545 
L 99.654545 110.334545 
L 103.459091 110.334545 
L 107.263636 110.334545 
L 111.068182 110.334545 
L 114.872727 110.334543 
L 118.677273 110.334537 
L 122.481818 110.334515 
L 126.286364 110.334442 
L 130.090909 110.334211 
L 133.895455 110.333524 
L 137.7 110.331581 
L 141.504545 110.32637 
L 145.309091 110.313132 
L 149.113636 110.281294 
L 152.918182 110.208846 
L 156.722727 110.052991 
L 160.527273 109.736335 
L 164.331818 109.129469 
L 168.136364 108.034115 
L 171.940909 106.175911 
L 175.745455 103.221046 
L 179.55 98.832956 
L 183.354545 92.779713 
L 187.159091 85.085838 
L 190.963636 76.195215 
L 194.768182 67.083177 
L 198.572727 59.241911 
L 202.377273 54.481005 
L 206.181818 54.541152 
L 209.986364 60.600413 
L 213.790909 72.824964 
L 217.595455 90.138814 
L 221.4 110.334545 
L 225.204545 130.530277 
L 229.009091 147.844127 
L 232.813636 160.068678 
L 236.618182 166.127939 
L 240.422727 166.188086 
L 244.227273 161.42718 
L 248.031818 153.585914 
L 251.836364 144.473876 
L 255.640909 135.583253 
L 259.445455 127.889378 
L 263.25 121.836135 
L 267.054545 117.448045 
L 270.859091 114.49318 
L 274.663636 112.634976 
L 278.468182 111.539622 
L 282.272727 110.932756 
L 286.077273 110.6161 
L 289.881818 110.460245 
L 293.686364 110.387797 
L 297.490909 110.355959 
L 301.295455 110.342721 
L 305.1 110.33751 
L 308.904545 110.335567 
L 312.709091 110.33488 
L 316.513636 110.334649 
L 320.318182 110.334576 
L 324.122727 110.334554 
L 327.927273 110.334548 
L 331.731818 110.334546 
L 335.536364 110.334546 
L 339.340909 110.334545 
L 343.145455 110.334545 
L 346.95 110.334545 
L 350.754545 110.334545 
L 354.559091 110.334545 
L 358.363636 110.334545 
L 362.168182 110.334545 
L 365.972727 110.334545 
L 369.777273 110.334545 
L 373.581818 110.334545 
" style="fill:none;stroke:#ff7f0e;stroke-linecap:square;stroke-width:1.5;"/>
   </g>
   <g id="line2d_31">
    <path clip-path="url(#p4650b0ab7b)" d="M 69.218182 110.334545 
L 73.022727 110.334545 
L 76.827273 110.334545 
L 80.631818 110.334545 
L 84.436364 110.334545 
L 88.240909 110.334545 
L 92.045455 110.334545 
L 95.85 110.334545 
L 99.654545 110.334545 
L 103.459091 110.334545 
L 107.263636 110.334545 
L 111.068182 110.334545 
L 114.872727 110.334543 
L 118.677273 110.334537 
L 122.481818 110.334515 
L 126.286364 110.334442 
L 130.090909 110.334211 
L 133.895455 110.333524 
L 137.7 110.331581 
L 141.504545 110.32637 
L 145.309091 110.313132 
L 149.113636 110.281294 
L 152.918182 110.208846 
L 156.722727 110.052991 
L 160.527273 109.736335 
L 164.331818 109.129469 
L 168.136364 108.034115 
L 171.940909 106.175911 
L 175.745455 103.221046 
L 179.55 98.832956 
L 183.354545 92.779713 
L 187.159091 85.085838 
L 190.963636 76.195215 
L 194.768182 67.083177 
L 198.572727 59.241911 
L 202.377273 54.481005 
L 206.181818 54.541152 
L 209.986364 60.600413 
L 213.790909 72.824964 
L 217.595455 90.138814 
L 221.4 110.334545 
L 225.204545 130.530277 
L 229.009091 147.844127 
L 232.813636 160.068678 
L 236.618182 166.127939 
L 240.422727 166.188086 
L 244.227273 161.42718 
L 248.031818 153.585914 
L 251.836364 144.473876 
L 255.640909 135.583253 
L 259.445455 127.889378 
L 263.25 121.836135 
L 267.054545 117.448045 
L 270.859091 114.49318 
L 274.663636 112.634976 
L 278.468182 111.539622 
L 282.272727 110.932756 
L 286.077273 110.6161 
L 289.881818 110.460245 
L 293.686364 110.387797 
L 297.490909 110.355959 
L 301.295455 110.342721 
L 305.1 110.33751 
L 308.904545 110.335567 
L 312.709091 110.33488 
L 316.513636 110.334649 
L 320.318182 110.334576 
L 324.122727 110.334554 
L 327.927273 110.334548 
L 331.731818 110.334546 
L 335.536364 110.334546 
L 339.340909 110.334545 
L 343.145455 110.334545 
L 346.95 110.334545 
L 350.754545 110.334545 
L 354.559091 110.334545 
L 358.363636 110.334545 
L 362.168182 110.334545 
L 365.972727 110.334545 
L 369.777273 110.334545 
L 373.581818 110.334545 
" style="fill:none;stroke:#2ca02c;stroke-linecap:square;stroke-width:1.5;"/>
   </g>
   <g id="line2d_32">
    <path clip-path="url(#p4650b0ab7b)" d="M 69.218182 110.334545 
L 73.022727 110.334545 
L 76.827273 110.334545 
L 80.631818 110.334545 
L 84.436364 110.334545 
L 88.240909 110.334545 
L 92.045455 110.334545 
L 95.85 110.334545 
L 99.654545 110.334545 
L 103.459091 110.334545 
L 107.263636 110.334544 
L 111.068182 110.33454 
L 114.872727 110.334526 
L 118.677273 110.334474 
L 122.481818 110.334302 
L 126.286364 110.333756 
L 130.090909 110.332115 
L 133.895455 110.32745 
L 137.7 110.314914 
L 141.504545 110.283085 
L 145.309091 110.206816 
L 149.113636 110.03453 
L 152.918182 109.66819 
L 156.722727 108.936284 
L 160.527273 107.565633 
L 164.331818 105.167207 
L 168.136364 101.262793 
L 171.940909 95.386904 
L 175.745455 87.291112 
L 179.55 77.244397 
L 183.354545 66.360166 
L 187.159091 56.805314 
L 190.963636 51.700265 
L 194.768182 54.55507 
L 198.572727 68.238167 
L 202.377273 93.714946 
L 206.181818 129.020443 
L 209.986364 169.000337 
L 213.790909 206.163287 
L 217.595455 232.559888 
L 221.4 242.116364 
L 225.204545 232.559888 
L 229.009091 206.163287 
L 232.813636 169.000337 
L 236.618182 129.020443 
L 240.422727 93.714946 
L 244.227273 68.238167 
L 248.031818 54.55507 
L 251.836364 51.700265 
L 255.640909 56.805314 
L 259.445455 66.360166 
L 263.25 77.244397 
L 267.054545 87.291112 
L 270.859091 95.386904 
L 274.663636 101.262793 
L 278.468182 105.167207 
L 282.272727 107.565633 
L 286.077273 108.936284 
L 289.881818 109.66819 
L 293.686364 110.03453 
L 297.490909 110.206816 
L 301.295455 110.283085 
L 305.1 110.314914 
L 308.904545 110.32745 
L 312.709091 110.332115 
L 316.513636 110.333756 
L 320.318182 110.334302 
L 324.122727 110.334474 
L 327.927273 110.334526 
L 331.731818 110.33454 
L 335.536364 110.334544 
L 339.340909 110.334545 
L 343.145455 110.334545 
L 346.95 110.334545 
L 350.754545 110.334545 
L 354.559091 110.334545 
L 358.363636 110.334545 
L 362.168182 110.334545 
L 365.972727 110.334545 
L 369.777273 110.334545 
L 373.581818 110.334545 
" style="fill:none;stroke:#d62728;stroke-linecap:square;stroke-width:1.5;"/>
   </g>
   <g id="patch_3">
    <path d="M 54 252 
L 54 34.56 
" style="fill:none;stroke:#000000;stroke-linecap:square;stroke-linejoin:miter;stroke-width:0.8;"/>
   </g>
   <g id="patch_4">
    <path d="M 388.8 252 
L 388.8 34.56 
" style="fill:none;stroke:#000000;stroke-linecap:square;stroke-linejoin:miter;stroke-width:0.8;"/>
   </g>
   <g id="patch_5">
    <path d="M 54 252 
L 388.8 252 
" style="fill:none;stroke:#000000;stroke-linecap:square;stroke-linejoin:miter;stroke-width:0.8;"/>
   </g>
   <g id="patch_6">
    <path d="M 54 34.56 
L 388.8 34.56 
" style="fill:none;stroke:#000000;stroke-linecap:square;stroke-linejoin:miter;stroke-width:0.8;"/>
   </g>
   <g id="legend_1">
    <g id="patch_7">
     <path d="M 61 247 
L 181.2 247 
Q 183.2 247 183.2 245 
L 183.2 186.44375 
Q 183.2 184.44375 181.2 184.44375 
L 61 184.44375 
Q 59 184.44375 59 186.44375 
L 59 245 
Q 59 247 61 247 
z
" style="fill:#ffffff;opacity:0.8;stroke:#cccccc;stroke-linejoin:miter;"/>
    </g>
    <g id="line2d_33">
     <path d="M 63 192.542188 
L 83 192.542188 
" style="fill:none;stroke:#1f77b4;stroke-linecap:square;stroke-width:1.5;"/>
    </g>
    <g id="line2d_34"/>
    <g id="text_17">
     <!--  f(x) -->
     <defs>
      <path id="DejaVuSans-32"/>
      <path d="M 37.109375 75.984375 
L 37.109375 68.5 
L 28.515625 68.5 
Q 23.6875 68.5 21.796875 66.546875 
Q 19.921875 64.59375 19.921875 59.515625 
L 19.921875 54.6875 
L 34.71875 54.6875 
L 34.71875 47.703125 
L 19.921875 47.703125 
L 19.921875 0 
L 10.890625 0 
L 10.890625 47.703125 
L 2.296875 47.703125 
L 2.296875 54.6875 
L 10.890625 54.6875 
L 10.890625 58.5 
Q 10.890625 67.625 15.140625 71.796875 
Q 19.390625 75.984375 28.609375 75.984375 
z
" id="DejaVuSans-102"/>
      <path d="M 54.890625 54.6875 
L 35.109375 28.078125 
L 55.90625 0 
L 45.3125 0 
L 29.390625 21.484375 
L 13.484375 0 
L 2.875 0 
L 24.125 28.609375 
L 4.6875 54.6875 
L 15.28125 54.6875 
L 29.78125 35.203125 
L 44.28125 54.6875 
z
" id="DejaVuSans-120"/>
     </defs>
     <g transform="translate(91 196.042188)scale(0.1 -0.1)">
      <use xlink:href="#DejaVuSans-32"/>
      <use x="31.787109" xlink:href="#DejaVuSans-102"/>
      <use x="66.992188" xlink:href="#DejaVuSans-40"/>
      <use x="106.005859" xlink:href="#DejaVuSans-120"/>
      <use x="165.185547" xlink:href="#DejaVuSans-41"/>
     </g>
    </g>
    <g id="line2d_35">
     <path d="M 63 207.220313 
L 83 207.220313 
" style="fill:none;stroke:#ff7f0e;stroke-linecap:square;stroke-width:1.5;"/>
    </g>
    <g id="line2d_36"/>
    <g id="text_18">
     <!--  $df/dx$ (derive) -->
     <defs>
      <path d="M 41.796875 8.203125 
Q 38.1875 3.46875 33.25 1.015625 
Q 28.328125 -1.421875 22.3125 -1.421875 
Q 14.109375 -1.421875 9.34375 4.171875 
Q 4.59375 9.765625 4.59375 19.484375 
Q 4.59375 27.59375 7.46875 34.9375 
Q 10.359375 42.28125 15.828125 48.09375 
Q 19.4375 51.953125 23.96875 53.96875 
Q 28.515625 56 33.5 56 
Q 38.765625 56 42.796875 53.453125 
Q 46.828125 50.921875 49.03125 46.1875 
L 54.890625 75.984375 
L 63.921875 75.984375 
L 49.125 0 
L 40.09375 0 
z
M 13.921875 21.09375 
Q 13.921875 14.015625 17.109375 10.0625 
Q 20.3125 6.109375 25.984375 6.109375 
Q 30.171875 6.109375 33.765625 8.125 
Q 37.359375 10.15625 40.09375 14.109375 
Q 42.96875 18.21875 44.625 23.578125 
Q 46.296875 28.953125 46.296875 34.1875 
Q 46.296875 40.96875 43.09375 44.765625 
Q 39.890625 48.578125 34.28125 48.578125 
Q 30.03125 48.578125 26.359375 46.578125 
Q 22.703125 44.578125 20.125 40.828125 
Q 17.28125 36.765625 15.59375 31.390625 
Q 13.921875 26.03125 13.921875 21.09375 
z
" id="DejaVuSans-Oblique-100"/>
      <path d="M 25.390625 72.90625 
L 33.6875 72.90625 
L 8.296875 -9.28125 
L 0 -9.28125 
z
" id="DejaVuSans-47"/>
      <path d="M 45.40625 46.390625 
L 45.40625 75.984375 
L 54.390625 75.984375 
L 54.390625 0 
L 45.40625 0 
L 45.40625 8.203125 
Q 42.578125 3.328125 38.25 0.953125 
Q 33.9375 -1.421875 27.875 -1.421875 
Q 17.96875 -1.421875 11.734375 6.484375 
Q 5.515625 14.40625 5.515625 27.296875 
Q 5.515625 40.1875 11.734375 48.09375 
Q 17.96875 56 27.875 56 
Q 33.9375 56 38.25 53.625 
Q 42.578125 51.265625 45.40625 46.390625 
z
M 14.796875 27.296875 
Q 14.796875 17.390625 18.875 11.75 
Q 22.953125 6.109375 30.078125 6.109375 
Q 37.203125 6.109375 41.296875 11.75 
Q 45.40625 17.390625 45.40625 27.296875 
Q 45.40625 37.203125 41.296875 42.84375 
Q 37.203125 48.484375 30.078125 48.484375 
Q 22.953125 48.484375 18.875 42.84375 
Q 14.796875 37.203125 14.796875 27.296875 
z
" id="DejaVuSans-100"/>
      <path d="M 56.203125 29.59375 
L 56.203125 25.203125 
L 14.890625 25.203125 
Q 15.484375 15.921875 20.484375 11.0625 
Q 25.484375 6.203125 34.421875 6.203125 
Q 39.59375 6.203125 44.453125 7.46875 
Q 49.3125 8.734375 54.109375 11.28125 
L 54.109375 2.78125 
Q 49.265625 0.734375 44.1875 -0.34375 
Q 39.109375 -1.421875 33.890625 -1.421875 
Q 20.796875 -1.421875 13.15625 6.1875 
Q 5.515625 13.8125 5.515625 26.8125 
Q 5.515625 40.234375 12.765625 48.109375 
Q 20.015625 56 32.328125 56 
Q 43.359375 56 49.78125 48.890625 
Q 56.203125 41.796875 56.203125 29.59375 
z
M 47.21875 32.234375 
Q 47.125 39.59375 43.09375 43.984375 
Q 39.0625 48.390625 32.421875 48.390625 
Q 24.90625 48.390625 20.390625 44.140625 
Q 15.875 39.890625 15.1875 32.171875 
z
" id="DejaVuSans-101"/>
      <path d="M 41.109375 46.296875 
Q 39.59375 47.171875 37.8125 47.578125 
Q 36.03125 48 33.890625 48 
Q 26.265625 48 22.1875 43.046875 
Q 18.109375 38.09375 18.109375 28.8125 
L 18.109375 0 
L 9.078125 0 
L 9.078125 54.6875 
L 18.109375 54.6875 
L 18.109375 46.1875 
Q 20.953125 51.171875 25.484375 53.578125 
Q 30.03125 56 36.53125 56 
Q 37.453125 56 38.578125 55.875 
Q 39.703125 55.765625 41.0625 55.515625 
z
" id="DejaVuSans-114"/>
      <path d="M 2.984375 54.6875 
L 12.5 54.6875 
L 29.59375 8.796875 
L 46.6875 54.6875 
L 56.203125 54.6875 
L 35.6875 0 
L 23.484375 0 
z
" id="DejaVuSans-118"/>
     </defs>
     <g transform="translate(91 210.720313)scale(0.1 -0.1)">
      <use transform="translate(0 0.015625)" xlink:href="#DejaVuSans-32"/>
      <use transform="translate(31.787109 0.015625)" xlink:href="#DejaVuSans-Oblique-100"/>
      <use transform="translate(95.263672 0.015625)" xlink:href="#DejaVuSans-Oblique-102"/>
      <use transform="translate(130.46875 0.015625)" xlink:href="#DejaVuSans-47"/>
      <use transform="translate(164.160156 0.015625)" xlink:href="#DejaVuSans-Oblique-100"/>
      <use transform="translate(227.636719 0.015625)" xlink:href="#DejaVuSans-Oblique-120"/>
      <use transform="translate(286.816406 0.015625)" xlink:href="#DejaVuSans-32"/>
      <use transform="translate(318.603516 0.015625)" xlink:href="#DejaVuSans-40"/>
      <use transform="translate(357.617188 0.015625)" xlink:href="#DejaVuSans-100"/>
      <use transform="translate(421.09375 0.015625)" xlink:href="#DejaVuSans-101"/>
      <use transform="translate(482.617188 0.015625)" xlink:href="#DejaVuSans-114"/>
      <use transform="translate(523.730469 0.015625)" xlink:href="#DejaVuSans-105"/>
      <use transform="translate(551.513672 0.015625)" xlink:href="#DejaVuSans-118"/>
      <use transform="translate(610.693359 0.015625)" xlink:href="#DejaVuSans-101"/>
      <use transform="translate(672.216797 0.015625)" xlink:href="#DejaVuSans-41"/>
     </g>
    </g>
    <g id="line2d_37">
     <path d="M 63 221.9 
L 83 221.9 
" style="fill:none;stroke:#2ca02c;stroke-linecap:square;stroke-width:1.5;"/>
    </g>
    <g id="line2d_38"/>
    <g id="text_19">
     <!--  $df/dx$ (backprop) -->
     <defs>
      <path d="M 48.6875 27.296875 
Q 48.6875 37.203125 44.609375 42.84375 
Q 40.53125 48.484375 33.40625 48.484375 
Q 26.265625 48.484375 22.1875 42.84375 
Q 18.109375 37.203125 18.109375 27.296875 
Q 18.109375 17.390625 22.1875 11.75 
Q 26.265625 6.109375 33.40625 6.109375 
Q 40.53125 6.109375 44.609375 11.75 
Q 48.6875 17.390625 48.6875 27.296875 
z
M 18.109375 46.390625 
Q 20.953125 51.265625 25.265625 53.625 
Q 29.59375 56 35.59375 56 
Q 45.5625 56 51.78125 48.09375 
Q 58.015625 40.1875 58.015625 27.296875 
Q 58.015625 14.40625 51.78125 6.484375 
Q 45.5625 -1.421875 35.59375 -1.421875 
Q 29.59375 -1.421875 25.265625 0.953125 
Q 20.953125 3.328125 18.109375 8.203125 
L 18.109375 0 
L 9.078125 0 
L 9.078125 75.984375 
L 18.109375 75.984375 
z
" id="DejaVuSans-98"/>
      <path d="M 34.28125 27.484375 
Q 23.390625 27.484375 19.1875 25 
Q 14.984375 22.515625 14.984375 16.5 
Q 14.984375 11.71875 18.140625 8.90625 
Q 21.296875 6.109375 26.703125 6.109375 
Q 34.1875 6.109375 38.703125 11.40625 
Q 43.21875 16.703125 43.21875 25.484375 
L 43.21875 27.484375 
z
M 52.203125 31.203125 
L 52.203125 0 
L 43.21875 0 
L 43.21875 8.296875 
Q 40.140625 3.328125 35.546875 0.953125 
Q 30.953125 -1.421875 24.3125 -1.421875 
Q 15.921875 -1.421875 10.953125 3.296875 
Q 6 8.015625 6 15.921875 
Q 6 25.140625 12.171875 29.828125 
Q 18.359375 34.515625 30.609375 34.515625 
L 43.21875 34.515625 
L 43.21875 35.40625 
Q 43.21875 41.609375 39.140625 45 
Q 35.0625 48.390625 27.6875 48.390625 
Q 23 48.390625 18.546875 47.265625 
Q 14.109375 46.140625 10.015625 43.890625 
L 10.015625 52.203125 
Q 14.9375 54.109375 19.578125 55.046875 
Q 24.21875 56 28.609375 56 
Q 40.484375 56 46.34375 49.84375 
Q 52.203125 43.703125 52.203125 31.203125 
z
" id="DejaVuSans-97"/>
      <path d="M 48.78125 52.59375 
L 48.78125 44.1875 
Q 44.96875 46.296875 41.140625 47.34375 
Q 37.3125 48.390625 33.40625 48.390625 
Q 24.65625 48.390625 19.8125 42.84375 
Q 14.984375 37.3125 14.984375 27.296875 
Q 14.984375 17.28125 19.8125 11.734375 
Q 24.65625 6.203125 33.40625 6.203125 
Q 37.3125 6.203125 41.140625 7.25 
Q 44.96875 8.296875 48.78125 10.40625 
L 48.78125 2.09375 
Q 45.015625 0.34375 40.984375 -0.53125 
Q 36.96875 -1.421875 32.421875 -1.421875 
Q 20.0625 -1.421875 12.78125 6.34375 
Q 5.515625 14.109375 5.515625 27.296875 
Q 5.515625 40.671875 12.859375 48.328125 
Q 20.21875 56 33.015625 56 
Q 37.15625 56 41.109375 55.140625 
Q 45.0625 54.296875 48.78125 52.59375 
z
" id="DejaVuSans-99"/>
      <path d="M 9.078125 75.984375 
L 18.109375 75.984375 
L 18.109375 31.109375 
L 44.921875 54.6875 
L 56.390625 54.6875 
L 27.390625 29.109375 
L 57.625 0 
L 45.90625 0 
L 18.109375 26.703125 
L 18.109375 0 
L 9.078125 0 
z
" id="DejaVuSans-107"/>
      <path d="M 18.109375 8.203125 
L 18.109375 -20.796875 
L 9.078125 -20.796875 
L 9.078125 54.6875 
L 18.109375 54.6875 
L 18.109375 46.390625 
Q 20.953125 51.265625 25.265625 53.625 
Q 29.59375 56 35.59375 56 
Q 45.5625 56 51.78125 48.09375 
Q 58.015625 40.1875 58.015625 27.296875 
Q 58.015625 14.40625 51.78125 6.484375 
Q 45.5625 -1.421875 35.59375 -1.421875 
Q 29.59375 -1.421875 25.265625 0.953125 
Q 20.953125 3.328125 18.109375 8.203125 
z
M 48.6875 27.296875 
Q 48.6875 37.203125 44.609375 42.84375 
Q 40.53125 48.484375 33.40625 48.484375 
Q 26.265625 48.484375 22.1875 42.84375 
Q 18.109375 37.203125 18.109375 27.296875 
Q 18.109375 17.390625 22.1875 11.75 
Q 26.265625 6.109375 33.40625 6.109375 
Q 40.53125 6.109375 44.609375 11.75 
Q 48.6875 17.390625 48.6875 27.296875 
z
" id="DejaVuSans-112"/>
      <path d="M 30.609375 48.390625 
Q 23.390625 48.390625 19.1875 42.75 
Q 14.984375 37.109375 14.984375 27.296875 
Q 14.984375 17.484375 19.15625 11.84375 
Q 23.34375 6.203125 30.609375 6.203125 
Q 37.796875 6.203125 41.984375 11.859375 
Q 46.1875 17.53125 46.1875 27.296875 
Q 46.1875 37.015625 41.984375 42.703125 
Q 37.796875 48.390625 30.609375 48.390625 
z
M 30.609375 56 
Q 42.328125 56 49.015625 48.375 
Q 55.71875 40.765625 55.71875 27.296875 
Q 55.71875 13.875 49.015625 6.21875 
Q 42.328125 -1.421875 30.609375 -1.421875 
Q 18.84375 -1.421875 12.171875 6.21875 
Q 5.515625 13.875 5.515625 27.296875 
Q 5.515625 40.765625 12.171875 48.375 
Q 18.84375 56 30.609375 56 
z
" id="DejaVuSans-111"/>
     </defs>
     <g transform="translate(91 225.4)scale(0.1 -0.1)">
      <use transform="translate(0 0.015625)" xlink:href="#DejaVuSans-32"/>
      <use transform="translate(31.787109 0.015625)" xlink:href="#DejaVuSans-Oblique-100"/>
      <use transform="translate(95.263672 0.015625)" xlink:href="#DejaVuSans-Oblique-102"/>
      <use transform="translate(130.46875 0.015625)" xlink:href="#DejaVuSans-47"/>
      <use transform="translate(164.160156 0.015625)" xlink:href="#DejaVuSans-Oblique-100"/>
      <use transform="translate(227.636719 0.015625)" xlink:href="#DejaVuSans-Oblique-120"/>
      <use transform="translate(286.816406 0.015625)" xlink:href="#DejaVuSans-32"/>
      <use transform="translate(318.603516 0.015625)" xlink:href="#DejaVuSans-40"/>
      <use transform="translate(357.617188 0.015625)" xlink:href="#DejaVuSans-98"/>
      <use transform="translate(421.09375 0.015625)" xlink:href="#DejaVuSans-97"/>
      <use transform="translate(482.373047 0.015625)" xlink:href="#DejaVuSans-99"/>
      <use transform="translate(537.353516 0.015625)" xlink:href="#DejaVuSans-107"/>
      <use transform="translate(595.263672 0.015625)" xlink:href="#DejaVuSans-112"/>
      <use transform="translate(658.740234 0.015625)" xlink:href="#DejaVuSans-114"/>
      <use transform="translate(699.853516 0.015625)" xlink:href="#DejaVuSans-111"/>
      <use transform="translate(761.035156 0.015625)" xlink:href="#DejaVuSans-112"/>
      <use transform="translate(824.511719 0.015625)" xlink:href="#DejaVuSans-41"/>
     </g>
    </g>
    <g id="line2d_39">
     <path d="M 63 237.420312 
L 83 237.420312 
" style="fill:none;stroke:#d62728;stroke-linecap:square;stroke-width:1.5;"/>
    </g>
    <g id="line2d_40"/>
    <g id="text_20">
     <!--  $d^2f/dx^2$ (derive2) -->
     <g transform="translate(91 240.920312)scale(0.1 -0.1)">
      <use transform="translate(0 0.765625)" xlink:href="#DejaVuSans-32"/>
      <use transform="translate(31.787109 0.765625)" xlink:href="#DejaVuSans-Oblique-100"/>
      <use transform="translate(102.71138 39.046875)scale(0.7)" xlink:href="#DejaVuSans-50"/>
      <use transform="translate(149.981888 0.765625)" xlink:href="#DejaVuSans-Oblique-102"/>
      <use transform="translate(185.186966 0.765625)" xlink:href="#DejaVuSans-47"/>
      <use transform="translate(218.878372 0.765625)" xlink:href="#DejaVuSans-Oblique-100"/>
      <use transform="translate(282.354935 0.765625)" xlink:href="#DejaVuSans-Oblique-120"/>
      <use transform="translate(346.000768 39.046875)scale(0.7)" xlink:href="#DejaVuSans-50"/>
      <use transform="translate(393.271276 0.765625)" xlink:href="#DejaVuSans-32"/>
      <use transform="translate(425.058385 0.765625)" xlink:href="#DejaVuSans-40"/>
      <use transform="translate(464.072057 0.765625)" xlink:href="#DejaVuSans-100"/>
      <use transform="translate(527.54862 0.765625)" xlink:href="#DejaVuSans-101"/>
      <use transform="translate(589.072057 0.765625)" xlink:href="#DejaVuSans-114"/>
      <use transform="translate(630.185339 0.765625)" xlink:href="#DejaVuSans-105"/>
      <use transform="translate(657.968542 0.765625)" xlink:href="#DejaVuSans-118"/>
      <use transform="translate(717.148229 0.765625)" xlink:href="#DejaVuSans-101"/>
      <use transform="translate(778.671667 0.765625)" xlink:href="#DejaVuSans-50"/>
      <use transform="translate(842.294714 0.765625)" xlink:href="#DejaVuSans-41"/>
     </g>
    </g>
   </g>
  </g>
 </g>
 <defs>
  <clipPath id="p4650b0ab7b">
   <rect height="217.44" width="334.8" x="54" y="34.56"/>
  </clipPath>
 </defs>
</svg>
